<svg xmlns="http://www.w3.org/2000/svg" xmlns:xlink="http://www.w3.org/1999/xlink" width="448" height="120" fill="none" viewBox="0 0 448 120"><g clip-path="url(#a)"><path fill="#333" d="M0 10C0 4.477 4.477 0 10 0h428c5.523 0 10 4.477 10 10v110H0z"/><path fill="url(#b)" fill-opacity=".35" d="M30-28h88v88H30z"/><path fill="url(#c)" fill-opacity=".35" d="M378 53h88v88h-88z"/><path fill="url(#d)" fill-opacity=".35" d="M290-19h88v88h-88z"/><path fill="url(#e)" fill-opacity=".35" d="M193 0h88v88h-88z"/><path fill="url(#f)" fill-opacity=".35" d="M57 76h88v88H57z"/></g><defs><pattern id="b" width="1" height="1" patternContentUnits="objectBoundingBox"><use xlink:href="#g" transform="scale(.00195)"/></pattern><pattern id="c" width="1" height="1" patternContentUnits="objectBoundingBox"><use xlink:href="#g" transform="scale(.00195)"/></pattern><pattern id="d" width="1" height="1" patternContentUnits="objectBoundingBox"><use xlink:href="#g" transform="scale(.00195)"/></pattern><pattern id="e" width="1" height="1" patternContentUnits="objectBoundingBox"><use xlink:href="#h" transform="scale(.00195)"/></pattern><pattern id="f" width="1" height="1" patternContentUnits="objectBoundingBox"><use xlink:href="#h" transform="scale(.00195)"/></pattern><image href="card-top-texture-0.png" id="g" width="512" height="512" preserveAspectRatio="none"/><image href="card-top-texture-1.png" id="h" width="512" height="512" preserveAspectRatio="none"/><clipPath id="a"><path fill="#fff" d="M0 10C0 4.477 4.477 0 10 0h428c5.523 0 10 4.477 10 10v110H0z"/></clipPath></defs></svg>